<svg width="26" height="24" viewBox="0 0 26 24" fill="none" xmlns="http://www.w3.org/2000/svg">
<path d="M0 9V21.8744C0 23.5452 1.92719 24.4794 3.23883 23.4446L4.56328 22.3996C4.91618 22.1211 5.35259 21.9697 5.80211 21.9697H19C20.1046 21.9697 21 21.0743 21 19.9697V9C21 7.89543 20.1046 7 19 7H2C0.895431 7 0 7.89543 0 9Z" fill="#F7D917"/>
<path d="M6.23281 21.5728C6.12357 21.6647 5.99038 21.7235 5.84887 21.7423C5.70737 21.7612 5.56343 21.7392 5.43397 21.679C5.30451 21.6189 5.1949 21.523 5.11803 21.4028C5.04116 21.2825 5.00021 21.1428 5 21V6C5 5.80109 5.07902 5.61032 5.21967 5.46967C5.36032 5.32902 5.55109 5.25 5.75 5.25H22.25C22.4489 5.25 22.6397 5.32902 22.7803 5.46967C22.921 5.61032 23 5.80109 23 6V18C23 18.1989 22.921 18.3897 22.7803 18.5303C22.6397 18.671 22.4489 18.75 22.25 18.75H9.5L6.23281 21.5728Z" stroke="#002FA7" stroke-width="2" stroke-linecap="round" stroke-linejoin="round"/>
</svg>
