<svg width="20" height="18" viewBox="0 0 20 18" fill="none" xmlns="http://www.w3.org/2000/svg">
<path d="M18 0H1.50003C1.1022 0 0.720671 0.158035 0.439367 0.43934C0.158062 0.720644 2.71634e-05 1.10218 2.71634e-05 1.5V16.5C-0.0017026 16.786 0.0792146 17.0665 0.233052 17.3076C0.38689 17.5488 0.607101 17.7404 0.867215 17.8594C1.06543 17.9517 1.28138 17.9997 1.50003 18C1.85216 17.9992 2.1926 17.8736 2.46096 17.6456L2.4694 17.6391L5.53128 15H18C18.3979 15 18.7794 14.842 19.0607 14.5607C19.342 14.2794 19.5 13.8978 19.5 13.5V1.5C19.5 1.10218 19.342 0.720644 19.0607 0.43934C18.7794 0.158035 18.3979 0 18 0ZM18 13.5H5.25003C5.06994 13.5001 4.8959 13.565 4.75971 13.6828L1.50003 16.5V1.5H18V13.5Z" fill="#2F2C27"/>
</svg>
