<svg width="24" height="24" viewBox="0 0 24 24" fill="none" xmlns="http://www.w3.org/2000/svg">
<path d="M22.2497 9.95716L5.75719 3.84373L5.74219 3.83904C5.47672 3.74764 5.19093 3.73257 4.91732 3.79556C4.64371 3.85856 4.39328 3.99707 4.1945 4.19536C3.99573 4.39365 3.8566 4.64374 3.79293 4.91719C3.72927 5.19064 3.74363 5.47647 3.83438 5.74216C3.83552 5.74729 3.83708 5.7523 3.83906 5.75716L9.95719 22.2497C10.0577 22.5437 10.2483 22.7986 10.5019 22.9782C10.7555 23.1578 11.0593 23.2529 11.37 23.25H11.3981C11.715 23.2476 12.0227 23.1434 12.2759 22.9528C12.5291 22.7623 12.7144 22.4954 12.8044 22.1915L12.81 22.1728L14.8575 14.8603L22.17 12.8128L22.1888 12.8072C22.4903 12.7144 22.755 12.5288 22.945 12.2769C23.1351 12.025 23.2408 11.7196 23.2473 11.4041C23.2537 11.0886 23.1605 10.7792 22.9809 10.5197C22.8013 10.2603 22.5444 10.0641 22.2469 9.95904L22.2497 9.95716ZM14.0475 13.5281C13.9237 13.5629 13.8108 13.6289 13.7199 13.7199C13.6289 13.8108 13.5629 13.9236 13.5281 14.0475L11.3719 21.75L11.3663 21.734L5.25 5.24998L21.7331 11.3644L21.7481 11.37L14.0475 13.5281Z" fill="#2F2C27"/>
</svg>
