<svg width="16" height="16" viewBox="0 0 16 16" fill="none" xmlns="http://www.w3.org/2000/svg">
<path d="M11.5 4.49999C11.5001 3.82909 11.3073 3.17231 10.9447 2.60785C10.5821 2.0434 10.0648 1.59506 9.45463 1.31623C8.84442 1.0374 8.16692 0.939827 7.50283 1.03513C6.83873 1.13043 6.21602 1.41459 5.70885 1.85377C5.20167 2.29295 4.83141 2.86864 4.64215 3.5123C4.45289 4.15595 4.45261 4.84043 4.64135 5.48424C4.83008 6.12804 5.19987 6.70404 5.70669 7.14363C6.2135 7.58323 6.83598 7.86789 7.5 7.96374V14.5C7.5 14.6326 7.55268 14.7598 7.64645 14.8535C7.74021 14.9473 7.86739 15 8 15C8.13261 15 8.25979 14.9473 8.35355 14.8535C8.44732 14.7598 8.5 14.6326 8.5 14.5V7.96374C9.33245 7.8424 10.0935 7.42577 10.6443 6.78987C11.195 6.15398 11.4987 5.34123 11.5 4.49999ZM8 6.99999C7.50555 6.99999 7.0222 6.85336 6.61107 6.57866C6.19995 6.30396 5.87952 5.91351 5.6903 5.4567C5.50108 4.99988 5.45157 4.49721 5.54804 4.01226C5.6445 3.52731 5.8826 3.08185 6.23223 2.73222C6.58186 2.38259 7.02732 2.14449 7.51227 2.04802C7.99723 1.95156 8.49989 2.00107 8.95671 2.19029C9.41352 2.37951 9.80397 2.69994 10.0787 3.11106C10.3534 3.52218 10.5 4.00553 10.5 4.49999C10.5 4.82829 10.4353 5.15338 10.3097 5.4567C10.1841 5.76001 9.99991 6.03561 9.76777 6.26775C9.53562 6.4999 9.26002 6.68405 8.95671 6.80969C8.65339 6.93532 8.3283 6.99999 8 6.99999Z" fill="black"/>
</svg>
